<?xml version="1.0" encoding="UTF-8" standalone="no"?>
<!DOCTYPE svg PUBLIC "-//W3C//DTD SVG 1.1//EN" "http://www.w3.org/Graphics/SVG/1.1/DTD/svg11.dtd">
<svg width="100%" height="100%" viewBox="0 0 43 71" version="1.1" xmlns="http://www.w3.org/2000/svg" xmlns:xlink="http://www.w3.org/1999/xlink" xml:space="preserve" xmlns:serif="http://www.serif.com/" style="fill-rule:evenodd;clip-rule:evenodd;stroke-linejoin:round;stroke-miterlimit:2;">
    <g transform="matrix(1,0,0,1,-111.2,-95.3)">
        <g>
            <g>
                <g>
                    <path d="M124.1,103.7C126.5,103.7 128.4,105.6 128.4,108C128.4,110.3 126.5,112.3 124.1,112.3C121.7,112.3 119.8,110.3 119.8,108L119.8,107.7C120,100.8 125.6,95.3 132.5,95.3C139.5,95.3 145.2,101 145.2,108C145.2,111.6 143.7,114.8 141.3,117.2L130.9,127.2C130.3,127.8 129.9,128.7 129.9,129.6C129.9,131.5 131.4,133.1 133.3,133.1C134.2,133.1 135.2,132.6 135.7,132.2L135.7,132.7C134.5,133.5 133,133.9 131.5,133.9C127.1,133.9 123.6,130.4 123.6,126C123.6,123.8 124.5,121.8 125.9,120.3L141.4,105.4C142.1,104.6 142.6,103.6 142.6,102.4C142.6,101.2 142.1,100.1 141.4,99.3C139.1,97 136,95.6 132.6,95.6C126.6,95.6 121.6,99.9 120.5,105.6C121.2,104.5 122.6,103.7 124.1,103.7ZM131.4,136.3C129.1,136.3 127.1,138.2 127.1,140.6C127.1,142.9 129.1,144.9 131.4,144.9C133.8,144.9 135.7,143 135.7,140.6C135.6,138.2 133.7,136.3 131.4,136.3ZM131.4,136.3C129.1,136.3 127.1,138.2 127.1,140.6C127.1,142.9 129.1,144.9 131.4,144.9C133.8,144.9 135.7,143 135.7,140.6C135.6,138.2 133.7,136.3 131.4,136.3Z" style="fill:white;fill-rule:nonzero;"/>
                </g>
            </g>
            <g>
                <g>
                    <path d="M122.3,149.2C121.6,149.1 121.1,149.6 121.3,150.2C121.6,153.3 122.2,155.6 123.5,157C124.4,158 127.5,159.7 132.2,159.7L132.8,159.7C134.8,159.7 136.4,159.4 137.7,159C133,154.7 128.3,149.8 122.3,149.2ZM152.8,132.1C153.5,134.2 153.9,136.4 153.9,138.7C153.9,148.4 147.5,156.5 138.6,159.1C141.5,161.7 144.2,163.9 147.2,164.7C146.1,164 145.4,162.6 145.4,161.2C145.4,158.8 147.3,156.9 149.7,156.9C152.1,156.9 154,158.8 154,161.2C154,163.5 152.1,165.5 149.7,165.5C145.6,165.5 141.9,162.6 138.2,159.3C136.4,159.8 134.6,160 132.6,160L132.5,160C120.7,160 111.2,150.4 111.2,138.6C111.2,136.3 111.6,134 112.3,132L121.2,132L121.2,141.4C121.2,143.6 121.2,145.7 121.3,147.7C121.3,148.2 121.7,148.6 122.2,148.7C127.8,149.1 132.4,153.3 136.8,157.4C137.3,157.9 137.8,158.4 138.3,158.8C140,158.2 141.2,157.5 141.7,157C144.1,154.4 144.1,148.4 144.1,141.4L144.1,132L152.8,132.1Z" style="fill:white;fill-rule:nonzero;"/>
                </g>
            </g>
        </g>
    </g>
</svg>
