<?xml version="1.0" encoding="utf-8"?>
<!-- Generator: Adobe Illustrator 24.0.1, SVG Export Plug-In . SVG Version: 6.00 Build 0)  -->
<svg version="1.1" id="Warstwa_1" xmlns="http://www.w3.org/2000/svg" xmlns:xlink="http://www.w3.org/1999/xlink" x="0px" y="0px"
	 viewBox="0 0 285.32 342.2" style="enable-background:new 0 0 285.32 342.2;" xml:space="preserve">
<g>
	<g>
		<g>
			<g>
				<path d="M124.08,103.66c2.38,0,4.27,1.89,4.27,4.28c0,2.32-1.89,4.27-4.27,4.27c-2.38,0-4.27-1.96-4.27-4.27
					c0-0.12,0-0.24,0-0.31c0.18-6.9,5.8-12.39,12.7-12.39c7.02,0,12.7,5.68,12.7,12.7c0,3.6-1.53,6.84-3.91,9.16l-10.44,10.01
					c-0.61,0.61-1.04,1.53-1.04,2.44c0,1.89,1.53,3.48,3.42,3.48c0.92,0,1.95-0.49,2.38-0.86v0.49c-1.22,0.79-2.69,1.22-4.21,1.22
					c-4.4,0-7.93-3.54-7.93-7.93c0-2.2,0.91-4.22,2.32-5.68l15.5-14.89c0.73-0.8,1.22-1.83,1.22-2.99c0-1.22-0.49-2.26-1.22-3.05
					c-2.26-2.26-5.37-3.66-8.79-3.66c-5.98,0-10.99,4.34-12.09,10.01C121.21,104.46,122.56,103.66,124.08,103.66z M131.35,136.26
					c-2.32,0-4.27,1.89-4.27,4.28c0,2.32,1.96,4.27,4.27,4.27c2.38,0,4.27-1.95,4.27-4.27
					C135.62,138.15,133.72,136.26,131.35,136.26z M131.35,136.26c-2.32,0-4.27,1.89-4.27,4.28c0,2.32,1.96,4.27,4.27,4.27
					c2.38,0,4.27-1.95,4.27-4.27C135.62,138.15,133.72,136.26,131.35,136.26z"/>
			</g>
		</g>
		<g>
			<g>
				<path d="M122.31,149.21c-0.73-0.06-1.16,0.37-1.04,1.04c0.31,3.05,0.92,5.43,2.2,6.77c0.92,0.98,4.03,2.69,8.73,2.69h0.55
					c1.96,0,3.6-0.3,4.95-0.67c-4.7-4.34-9.41-9.22-15.33-9.83H122.31z M152.76,132.12c0.68,2.09,1.05,4.33,1.05,6.65
					c0,9.71-6.41,17.83-15.26,20.45c2.87,2.56,5.62,4.82,8.61,5.62c-1.1-0.73-1.83-2.08-1.83-3.49c0-2.38,1.89-4.27,4.27-4.27l0,0
					l0,0l0,0c2.38,0,4.27,1.89,4.27,4.27c0,2.32-1.89,4.28-4.27,4.28c-4.15,0-7.81-2.86-11.54-6.22c-1.77,0.48-3.6,0.72-5.56,0.72
					h-0.06c-11.79,0-21.3-9.58-21.3-21.36c0-2.32,0.37-4.56,1.05-6.65h8.9c-0.02,1.27-0.01,2.6-0.01,3.96v5.38
					c0,2.2,0,4.34,0.06,6.29c0,0.49,0.36,0.92,0.92,0.98c5.62,0.43,10.2,4.64,14.6,8.73c0.49,0.49,0.98,0.98,1.46,1.4
					c1.71-0.55,2.87-1.28,3.36-1.83c2.44-2.56,2.38-8.61,2.38-15.57v-5.38c0-1.36,0-2.69-0.01-3.96H152.76z"/>
			</g>
		</g>
	</g>
</g>
</svg>
