<?xml version="1.0" encoding="UTF-8" standalone="no"?>
<!DOCTYPE svg PUBLIC "-//W3C//DTD SVG 1.1//EN" "http://www.w3.org/Graphics/SVG/1.1/DTD/svg11.dtd">
<svg width="100%" height="100%" viewBox="0 0 43 34" version="1.1" xmlns="http://www.w3.org/2000/svg" xmlns:xlink="http://www.w3.org/1999/xlink" xml:space="preserve" xmlns:serif="http://www.serif.com/" style="fill-rule:evenodd;clip-rule:evenodd;stroke-linejoin:round;stroke-miterlimit:2;">
    <g transform="matrix(1,0,0,1,-111.2,-132)">
        <path d="M122.3,149.2C121.6,149.1 121.1,149.6 121.3,150.2C121.6,153.3 122.2,155.6 123.5,157C124.4,158 127.5,159.7 132.2,159.7L132.8,159.7C134.8,159.7 136.4,159.4 137.7,159C133,154.7 128.3,149.8 122.3,149.2ZM152.8,132.1C153.5,134.2 153.9,136.4 153.9,138.7C153.9,148.4 147.5,156.5 138.6,159.1C141.5,161.7 144.2,163.9 147.2,164.7C146.1,164 145.4,162.6 145.4,161.2C145.4,158.8 147.3,156.9 149.7,156.9C152.1,156.9 154,158.8 154,161.2C154,163.5 152.1,165.5 149.7,165.5C145.6,165.5 141.9,162.6 138.2,159.3C136.4,159.8 134.6,160 132.6,160L132.5,160C120.7,160 111.2,150.4 111.2,138.6C111.2,136.3 111.6,134 112.3,132L121.2,132L121.2,141.4C121.2,143.6 121.2,145.7 121.3,147.7C121.3,148.2 121.7,148.6 122.2,148.7C127.8,149.1 132.4,153.3 136.8,157.4C137.3,157.9 137.8,158.4 138.3,158.8C140,158.2 141.2,157.5 141.7,157C144.1,154.4 144.1,148.4 144.1,141.4L144.1,132L152.8,132.1Z" style="fill:white;fill-rule:nonzero;"/>
    </g>
</svg>
